<svg xmlns:dc="http://purl.org/dc/elements/1.1/" xmlns:cc="http://creativecommons.org/ns#" xmlns:rdf="http://www.w3.org/1999/02/22-rdf-syntax-ns#" xmlns:svg="http://www.w3.org/2000/svg" xmlns="http://www.w3.org/2000/svg" xmlns:xlink="http://www.w3.org/1999/xlink" id="svg75097" viewBox="0 0 1024 768" height="768px" width="1024px" version="1.1">
  <g id="title" style="font-style:normal;font-weight:normal;font-size:72px;line-height:1;font-family:'Brandmark Sans 28';font-variant-ligatures:normal;text-align:center;text-anchor:middle" transform="translate(0 0)">
    <g id="path75106" aria-label="F" transform="translate(0 308.8) translate(292.216065 50) scale(1) translate(-293.55144 50.4)">
      <polygon class="c1" points="120.52075,87.3653 120.52075,74.09302 94.07935,74.0932 94.07935,74.09363 79.47925,87.3653 79.47925,124.52972 94.07971,124.52972 94.07971,106.61084 118.09473,106.61066 118.09473,93.33844 94.07971,93.33856 94.07971,87.36548 " transform="translate(214.07225 -124.49302)" stroke-width="0" stroke-linejoin="miter" stroke-miterlimit="2" fill="#5ab8ae" stroke="#5ab8ae"/>
      <linearGradient id="f56930bc-3f5d-4eec-89f5-c95e378f7bd3" gradientUnits="userSpaceOnUse" x1="94.07934" y1="90.35196" x2="120.52081" y2="90.35196">
        <stop offset="0" style="stop-color:#000000;stop-opacity:0.4"/>
        <stop offset="0.27595" style="stop-color:#0F0D0D;stop-opacity:0.28962"/>
        <stop offset="0.67484" style="stop-color:#1E1A1B;stop-opacity:0.13006"/>
        <stop offset="1" style="stop-color:#231F20;stop-opacity:0"/>
      </linearGradient>
      <path class="highlight" fill="url(#f56930bc-3f5d-4eec-89f5-c95e378f7bd3)" d="M94.07953,106.61088V93.33861l24.01519-0.00018l-0.00001,13.27228L94.07953,106.61088z M120.52081,87.36532V74.09304l-26.44147,0.00018v13.27227L120.52081,87.36532z" transform="translate(214.07225 -124.49302)" stroke-width="0" stroke-linejoin="miter" stroke-miterlimit="2" opacity="1"/>
      <linearGradient id="f216a12e-9460-4e36-ab7b-4cde3be76d0d" gradientUnits="userSpaceOnUse" x1="86.77944" y1="124.52972" x2="86.77944" y2="74.09335">
        <stop offset="0" style="stop-color:#000000;stop-opacity:0.3"/>
        <stop offset="0.21414" style="stop-color:#0F0D0D;stop-opacity:0.21727"/>
        <stop offset="0.52404" style="stop-color:#1E1A1B;stop-opacity:0.09755"/>
        <stop offset="0.77654" style="stop-color:#231F20;stop-opacity:0"/>
      </linearGradient>
      <polygon class="highlight" fill="url(#f216a12e-9460-4e36-ab7b-4cde3be76d0d)" points="79.47919,124.52972 94.07969,124.52972 94.07969,74.09335 79.47919,87.3653 " transform="translate(214.07225 -124.49302)" stroke-width="0" stroke-linejoin="miter" stroke-miterlimit="2" opacity="1"/>
      <linearGradient id="236f5e6e-b942-4155-b389-437ceaa490af" gradientUnits="userSpaceOnUse" x1="86.77944" y1="74.76357" x2="86.77944" y2="123.2663">
        <stop offset="0" style="stop-color:#FFFFFF;stop-opacity:0.5"/>
        <stop offset="0.01111" style="stop-color:#FFFFFF;stop-opacity:0.49309"/>
        <stop offset="0.80327" style="stop-color:#FFFFFF;stop-opacity:0"/>
      </linearGradient>
      <polygon class="highlight" fill="url(#236f5e6e-b942-4155-b389-437ceaa490af)" points="79.47919,124.52972 94.07969,124.52972 94.07969,74.09335 79.47919,87.3653 " transform="translate(214.07225 -124.49302)" stroke-width="0" stroke-linejoin="miter" stroke-miterlimit="2" opacity="1"/>
    </g>
    <g id="path75108" aria-label="I" transform="translate(0 308.8) translate(339.695565 50) scale(1) translate(-341.03094 50.4)">
      <polygon class="c1" points="92.68457,74.11133 92.68457,88.72443 92.68457,91.32794 92.68457,124.52972 107.28516,124.52972 107.28516,91.32739 107.28516,88.72552 107.28516,74.11133 " transform="translate(248.34639 -124.49351)" stroke-width="0" stroke-linejoin="miter" stroke-miterlimit="2" fill="#5ab8ae" stroke="#5ab8ae"/>
      <linearGradient id="54f5da21-7b5c-42be-af7c-a98c1cbe443c" gradientUnits="userSpaceOnUse" x1="99.9849" y1="88.29665" x2="99.9849" y2="123.32087">
        <stop offset="0" style="stop-color:#000000;stop-opacity:0.4"/>
        <stop offset="0.27595" style="stop-color:#0F0D0D;stop-opacity:0.28962"/>
        <stop offset="0.67484" style="stop-color:#1E1A1B;stop-opacity:0.13006"/>
        <stop offset="1" style="stop-color:#231F20;stop-opacity:0"/>
      </linearGradient>
      <rect x="92.68465" y="88.72499" class="highlight" fill="url(#54f5da21-7b5c-42be-af7c-a98c1cbe443c)" width="14.6005" height="35.80472" transform="translate(248.34639 -124.49351)" stroke-width="0" stroke-linejoin="miter" stroke-miterlimit="2" opacity="1"/>
      <linearGradient id="5d988b73-9b4a-423e-b9ab-76973a48a488" gradientUnits="userSpaceOnUse" x1="96.08685" y1="85.06548" x2="104.20254" y2="77.45702">
        <stop offset="0" style="stop-color:#000000;stop-opacity:0.4"/>
        <stop offset="0.27595" style="stop-color:#0F0D0D;stop-opacity:0.28962"/>
        <stop offset="0.67484" style="stop-color:#1E1A1B;stop-opacity:0.13006"/>
        <stop offset="1" style="stop-color:#231F20;stop-opacity:0"/>
      </linearGradient>
      <polygon class="highlight" fill="url(#5d988b73-9b4a-423e-b9ab-76973a48a488)" points="107.28516,74.11133 92.70239,74.11133 107.28516,88.69415 " transform="translate(248.34639 -124.49351)" stroke-width="0" stroke-linejoin="miter" stroke-miterlimit="2" opacity="1"/>
      <linearGradient id="ad2696ae-7e4a-4bf5-8dfa-49daf2c8cd82" gradientUnits="userSpaceOnUse" x1="100.20536" y1="81.20361" x2="92.47973" y2="88.92923">
        <stop offset="0" style="stop-color:#FFFFFF;stop-opacity:0.5"/>
        <stop offset="0.01383" style="stop-color:#FFFFFF;stop-opacity:0.49309"/>
        <stop offset="1" style="stop-color:#FFFFFF;stop-opacity:0"/>
      </linearGradient>
      <polygon class="highlight" fill="url(#ad2696ae-7e4a-4bf5-8dfa-49daf2c8cd82)" points="107.31545,88.72442 92.68455,74.09351 92.68456,88.72442 " transform="translate(248.34639 -124.49351)" stroke-width="0" stroke-linejoin="miter" stroke-miterlimit="2" opacity="1"/>
    </g>
    <g id="path75110" aria-label="T" transform="translate(0 308.8) translate(359.442685 50) scale(1) translate(-360.77806 50.4)">
      <polygon class="c1" points="121.78027,74.09302 92.69922,74.0932 92.69922,74.09277 78.21973,74.09296 78.21973,87.36523 92.69922,87.36505 92.69922,87.36548 92.7002,87.36548 92.7002,124.5296 107.30078,124.5296 107.30078,87.36536 121.78027,87.3653 " transform="translate(282.55844 -124.49277)" stroke-width="0" stroke-linejoin="miter" stroke-miterlimit="2" fill="#5ab8ae" stroke="#5ab8ae"/>
      <linearGradient id="934626bb-0ffa-4125-8fd3-d217a514c5c7" gradientUnits="userSpaceOnUse" x1="98.75742" y1="80.72904" x2="79.02769" y2="80.72904">
        <stop offset="0.25563" style="stop-color:#000000;stop-opacity:0.4"/>
        <stop offset="0.46104" style="stop-color:#0F0D0D;stop-opacity:0.28962"/>
        <stop offset="0.75796" style="stop-color:#1E1A1B;stop-opacity:0.13006"/>
        <stop offset="1" style="stop-color:#231F20;stop-opacity:0"/>
      </linearGradient>
      <polygon class="highlight" fill="url(#934626bb-0ffa-4125-8fd3-d217a514c5c7)" points="78.21962,87.36527 78.21963,74.09299 92.69942,74.09282 92.69942,87.36509 " transform="translate(282.55844 -124.49277)" stroke-width="0" stroke-linejoin="miter" stroke-miterlimit="2" opacity="1"/>
      <linearGradient id="92ad618d-b9d1-4952-87b2-1518434f9069" gradientUnits="userSpaceOnUse" x1="100.00058" y1="76.36192" x2="100.00058" y2="124.5535">
        <stop offset="0" style="stop-color:#FFFFFF;stop-opacity:0.5"/>
        <stop offset="0.01383" style="stop-color:#FFFFFF;stop-opacity:0.49309"/>
        <stop offset="1" style="stop-color:#FFFFFF;stop-opacity:0"/>
      </linearGradient>
      <polygon class="highlight" fill="url(#92ad618d-b9d1-4952-87b2-1518434f9069)" points="92.70033,124.52959 107.30083,124.52959 107.30083,87.3651 92.70033,74.09324 " transform="translate(282.55844 -124.49277)" stroke-width="0" stroke-linejoin="miter" stroke-miterlimit="2" opacity="1"/>
      <linearGradient id="d1aff507-c44b-4cc1-a9ab-39a9c10e692c" gradientUnits="userSpaceOnUse" x1="98.22302" y1="88.5871" x2="108.27877" y2="79.82423">
        <stop offset="0.25563" style="stop-color:#000000;stop-opacity:0.4"/>
        <stop offset="0.46104" style="stop-color:#0F0D0D;stop-opacity:0.28962"/>
        <stop offset="0.75796" style="stop-color:#1E1A1B;stop-opacity:0.13006"/>
        <stop offset="1" style="stop-color:#231F20;stop-opacity:0"/>
      </linearGradient>
      <polygon class="highlight" fill="url(#d1aff507-c44b-4cc1-a9ab-39a9c10e692c)" points="121.78027,74.09302 92.7002,74.0932 107.30127,87.36536 121.78027,87.3653 " transform="translate(282.55844 -124.49277)" stroke-width="0" stroke-linejoin="miter" stroke-miterlimit="2" opacity="1"/>
    </g>
    <g id="path75112" aria-label="M" transform="translate(0 308.8) translate(435.320565 50) scale(1) translate(-436.65594 50.4)">
      <polygon class="c1" points="113.59692,74.09332 113.59692,74.09497 112.9353,74.09497 100.00122,96.02771 87.06738,74.09497 86.40308,74.09497 86.40308,74.09332 71.80249,74.09332 71.80249,124.52972 86.40308,124.52972 86.40308,97.72437 92.70142,108.40424 100.00122,120.78082 107.30127,108.40424 113.59692,97.72876 113.59692,124.52972 128.19751,124.52972 128.19751,74.09332 " transform="translate(364.85345 -124.49332)" stroke-width="0" stroke-linejoin="miter" stroke-miterlimit="2" fill="#5ab8ae" stroke="#5ab8ae"/>
      <linearGradient id="7a82f666-6c82-423a-8a7c-846e6bd4bcd7" gradientUnits="userSpaceOnUse" x1="80.94681" y1="74.82027" x2="102.10015" y2="113.70509">
        <stop offset="0" style="stop-color:#FFFFFF;stop-opacity:0.5"/>
        <stop offset="0.01383" style="stop-color:#FFFFFF;stop-opacity:0.49309"/>
        <stop offset="1" style="stop-color:#FFFFFF;stop-opacity:0"/>
      </linearGradient>
      <polygon class="highlight" fill="url(#7a82f666-6c82-423a-8a7c-846e6bd4bcd7)" points="107.30116,108.40427 100.0013,120.78085 92.70145,108.40427 72.46761,74.09498 87.0673,74.09498 100.0013,96.02769 " transform="translate(364.85345 -124.49332)" stroke-width="0" stroke-linejoin="miter" stroke-miterlimit="2" opacity="1"/>
      <linearGradient id="98c355b5-cefc-46d6-95cf-a0de75cdbbd6" gradientUnits="userSpaceOnUse" x1="120.89726" y1="73.90538" x2="120.89726" y2="122.74471">
        <stop offset="0" style="stop-color:#FFFFFF;stop-opacity:0.5"/>
        <stop offset="0.01383" style="stop-color:#FFFFFF;stop-opacity:0.49309"/>
        <stop offset="1" style="stop-color:#FFFFFF;stop-opacity:0"/>
      </linearGradient>
      <polygon class="highlight" fill="url(#98c355b5-cefc-46d6-95cf-a0de75cdbbd6)" points="128.19751,124.52972 113.59702,124.52972 113.59702,74.09335 128.19751,74.09335 " transform="translate(364.85345 -124.49332)" stroke-width="0" stroke-linejoin="miter" stroke-miterlimit="2" opacity="1"/>
      <linearGradient id="2ac1b274-2b25-4657-98d0-daa12c4c5fe8" gradientUnits="userSpaceOnUse" x1="118.67101" y1="76.81688" x2="95.42242" y2="116.04887">
        <stop offset="0" style="stop-color:#000000;stop-opacity:0.4"/>
        <stop offset="0.27595" style="stop-color:#0F0D0D;stop-opacity:0.28962"/>
        <stop offset="0.67484" style="stop-color:#1E1A1B;stop-opacity:0.13006"/>
        <stop offset="1" style="stop-color:#231F20;stop-opacity:0"/>
      </linearGradient>
      <polygon class="highlight" fill="url(#2ac1b274-2b25-4657-98d0-daa12c4c5fe8)" points="112.9353,74.09497 100.00146,96.02734 107.30127,108.40424 113.59692,97.72888 113.59692,74.09497 " transform="translate(364.85345 -124.49332)" stroke-width="0" stroke-linejoin="miter" stroke-miterlimit="2" opacity="1"/>
      <linearGradient id="f7646189-1ef2-4b58-8343-2427f03ebf08" gradientUnits="userSpaceOnUse" x1="79.10278" y1="74.34427" x2="79.10278" y2="123.40578">
        <stop offset="0" style="stop-color:#000000;stop-opacity:0.4"/>
        <stop offset="0.27595" style="stop-color:#0F0D0D;stop-opacity:0.28962"/>
        <stop offset="0.67484" style="stop-color:#1E1A1B;stop-opacity:0.13006"/>
        <stop offset="1" style="stop-color:#231F20;stop-opacity:0"/>
      </linearGradient>
      <polygon class="highlight" fill="url(#f7646189-1ef2-4b58-8343-2427f03ebf08)" points="72.46655,74.09332 71.80249,74.09332 71.80249,124.52972 86.40308,124.52972 86.40308,97.72369 " transform="translate(364.85345 -124.49332)" stroke-width="0" stroke-linejoin="miter" stroke-miterlimit="2" opacity="1"/>
    </g>
    <g id="path75114" aria-label="A" transform="translate(0 308.8) translate(496.329315 50) scale(1) translate(-497.66469 50.4)">
      <polygon class="c1" points="126.98309,124.52972 107.96387,74.09351 107.07361,74.09351 92.69977,74.09351 91.80945,74.09351 73.01691,124.52972 88.28107,124.52972 99.92975,93.26648 111.71893,124.52972 " transform="translate(424.64778 -124.49351)" stroke-width="0" stroke-linejoin="miter" stroke-miterlimit="2" fill="#5ab8ae" stroke="#5ab8ae"/>
      <linearGradient id="89f5ce2c-d4ab-46be-9fab-3d897459706b" gradientUnits="userSpaceOnUse" x1="99.69487" y1="74.29882" x2="80.55542" y2="123.91029">
        <stop offset="0.22" style="stop-color:#231F20;stop-opacity:0"/>
        <stop offset="0.47363" style="stop-color:#1E1A1B;stop-opacity:0.13006"/>
        <stop offset="0.78476" style="stop-color:#0F0D0D;stop-opacity:0.28962"/>
        <stop offset="1" style="stop-color:#000000;stop-opacity:0.4"/>
      </linearGradient>
      <polygon class="highlight" fill="url(#89f5ce2c-d4ab-46be-9fab-3d897459706b)" points="107.07359,74.09354 91.80946,74.09354 73.01694,124.52972 88.28106,124.52972 " transform="translate(424.64778 -124.49351)" stroke-width="0" stroke-linejoin="miter" stroke-miterlimit="2" opacity="1"/>
      <linearGradient id="76bbdce3-a76b-4d74-8272-82834bbf05f5" gradientUnits="userSpaceOnUse" x1="99.69487" y1="74.29882" x2="80.55542" y2="123.91029">
        <stop offset="0" style="stop-color:#FFFFFF;stop-opacity:0.4"/>
        <stop offset="0.78" style="stop-color:#FFFFFF;stop-opacity:0"/>
      </linearGradient>
      <polygon class="highlight" fill="url(#76bbdce3-a76b-4d74-8272-82834bbf05f5)" points="107.07359,74.09354 91.80946,74.09354 73.01694,124.52972 88.28106,124.52972 " transform="translate(424.64778 -124.49351)" stroke-width="0" stroke-linejoin="miter" stroke-miterlimit="2" opacity="1"/>
      <linearGradient id="ff285e82-d6aa-474a-8542-05ab45e31141" gradientUnits="userSpaceOnUse" x1="118.91997" y1="121.8189" x2="100.46027" y2="76.05422">
        <stop offset="0" style="stop-color:#231F20;stop-opacity:0"/>
        <stop offset="0.32516" style="stop-color:#1E1A1B;stop-opacity:0.13006"/>
        <stop offset="0.72405" style="stop-color:#0F0D0D;stop-opacity:0.28962"/>
        <stop offset="1" style="stop-color:#000000;stop-opacity:0.4"/>
      </linearGradient>
      <polygon class="highlight" fill="url(#ff285e82-d6aa-474a-8542-05ab45e31141)" points="126.98309,124.52972 107.96387,74.09351 107.07361,74.09351 99.92975,93.26648 111.71893,124.52972 " transform="translate(424.64778 -124.49351)" stroke-width="0" stroke-linejoin="miter" stroke-miterlimit="2" opacity="1"/>
    </g>
    <g id="path75116" aria-label="R" transform="translate(0 308.8) translate(545.4895650000001 50) scale(1) translate(-546.82494 50.4)">
      <path class="c1" d="M121.67407,92.85052v-0.00006c0-10.35925-8.39795-18.75708-18.75708-18.75708l-24.59106,0.00018v13.27228 l24.59106-0.00018c3.02905,0.00012,5.48486,2.45563,5.48486,5.4848v0.00006c0,3.02893-2.45508,5.48425-5.48413,5.48474v-0.00085 l-8.00049,0.00018l-5.30884,13.27222l10.68262,12.92279h18.58203l-12.16772-13.30518 C115.24854,109.47223,121.67407,101.91193,121.67407,92.85052z" transform="translate(468.49901 -124.49338)" stroke-width="0" stroke-linejoin="miter" stroke-miterlimit="2" fill="#5ab8ae" stroke="#5ab8ae"/>
      <linearGradient id="c2b31c0f-ebfe-4f9d-9f41-6fb4e2bd5f8e" gradientUnits="userSpaceOnUse" x1="92.97134" y1="104.19817" x2="108.90907" y2="123.81383">
        <stop offset="0" style="stop-color:#FFFFFF;stop-opacity:0.5"/>
        <stop offset="0.01383" style="stop-color:#FFFFFF;stop-opacity:0.49309"/>
        <stop offset="1" style="stop-color:#FFFFFF;stop-opacity:0"/>
      </linearGradient>
      <polygon class="highlight" fill="url(#c2b31c0f-ebfe-4f9d-9f41-6fb4e2bd5f8e)" points="100.29094,124.52959 118.87318,124.52959 94.91724,98.33458 89.60835,111.60686 " transform="translate(468.49901 -124.49338)" stroke-width="0" stroke-linejoin="miter" stroke-miterlimit="2" opacity="1"/>
      <linearGradient id="8ab4e609-6e82-48b5-adf3-6c08a1e0458c" gradientUnits="userSpaceOnUse" x1="100" y1="92.85046" x2="100" y2="74.09338">
        <stop offset="0" style="stop-color:#FFFFFF;stop-opacity:0"/>
        <stop offset="0.98617" style="stop-color:#FFFFFF;stop-opacity:0.49309"/>
        <stop offset="1" style="stop-color:#FFFFFF;stop-opacity:0.5"/>
      </linearGradient>
      <path class="highlight" fill="url(#8ab4e609-6e82-48b5-adf3-6c08a1e0458c)" d="M102.91699,74.09338v0.00079V74.09338l-24.59106,0.00018v13.27228l24.59106-0.00018 c3.02905,0.00012,5.48486,2.45563,5.48486,5.4848h13.27222C121.67407,82.49121,113.27612,74.09338,102.91699,74.09338z" transform="translate(468.49901 -124.49338)" stroke-width="0" stroke-linejoin="miter" stroke-miterlimit="2" opacity="1"/>
      <linearGradient id="218ea368-0535-4c60-ad1f-335b8c361864" gradientUnits="userSpaceOnUse" x1="86.54824" y1="102.03745" x2="111.8803" y2="102.03745">
        <stop offset="0.25563" style="stop-color:#000000;stop-opacity:0.4"/>
        <stop offset="0.46104" style="stop-color:#0F0D0D;stop-opacity:0.28962"/>
        <stop offset="0.75796" style="stop-color:#1E1A1B;stop-opacity:0.13006"/>
        <stop offset="1" style="stop-color:#231F20;stop-opacity:0"/>
      </linearGradient>
      <path class="highlight" fill="url(#218ea368-0535-4c60-ad1f-335b8c361864)" d="M121.67407,92.85052v-0.00006h-13.27222v0.00006c0,3.02893-2.45508,5.48425-5.48413,5.48474 v-0.00085l-8.00049,0.00018l11.78809,12.88983C115.24854,109.47223,121.67407,101.91193,121.67407,92.85052z" transform="translate(468.49901 -124.49338)" stroke-width="0" stroke-linejoin="miter" stroke-miterlimit="2" opacity="1"/>
    </g>
    <g id="path75118" aria-label="K" transform="translate(0 308.8) translate(595.0705650000001 50) scale(1) translate(-596.40594 50.4)">
      <polygon class="c1" points="98.93994,99.32898 124.61694,74.11133 107.36279,74.11133 89.98291,91.63324 89.98291,74.11133 75.38306,74.11133 75.38306,124.54663 89.98291,124.54663 89.98291,107.02362 107.36279,124.54553 124.61694,124.54553 98.94116,99.32898 " transform="translate(521.0229 -124.51133)" stroke-width="0" stroke-linejoin="miter" stroke-miterlimit="2" fill="#5ab8ae" stroke="#5ab8ae"/>
      <linearGradient id="aeac23a7-79fb-4428-8fe9-6d7e3bf17c38" gradientUnits="userSpaceOnUse" x1="92.40637" y1="101.7223" x2="108.13032" y2="116.66975">
        <stop offset="0" style="stop-color:#000000;stop-opacity:0.4"/>
        <stop offset="0.27595" style="stop-color:#0F0D0D;stop-opacity:0.28962"/>
        <stop offset="0.67484" style="stop-color:#1E1A1B;stop-opacity:0.13006"/>
        <stop offset="1" style="stop-color:#231F20;stop-opacity:0"/>
      </linearGradient>
      <polygon class="highlight" fill="url(#aeac23a7-79fb-4428-8fe9-6d7e3bf17c38)" points="90.53662,107.58197 98.93994,99.32898 98.94116,99.32898 124.61694,124.54553 107.36279,124.54553 " transform="translate(521.0229 -124.51133)" stroke-width="0" stroke-linejoin="miter" stroke-miterlimit="2" opacity="1"/>
      <linearGradient id="94278616-7768-46c4-9776-1ff015837082" gradientUnits="userSpaceOnUse" x1="85.83228" y1="104.94044" x2="113.55901" y2="76.3193">
        <stop offset="0" style="stop-color:#000000;stop-opacity:0.4"/>
        <stop offset="0.14851" style="stop-color:#0F0D0D;stop-opacity:0.28962"/>
        <stop offset="0.36318" style="stop-color:#1E1A1B;stop-opacity:0.13006"/>
        <stop offset="0.53818" style="stop-color:#231F20;stop-opacity:0"/>
      </linearGradient>
      <polygon class="highlight" fill="url(#94278616-7768-46c4-9776-1ff015837082)" points="124.61688,74.11133 90.53667,107.58202 82.35054,99.32789 107.36269,74.11133 " transform="translate(521.0229 -124.51133)" stroke-width="0" stroke-linejoin="miter" stroke-miterlimit="2" opacity="1"/>
      <linearGradient id="ba1d71a4-07fb-4a6b-ab72-9280f77b18e9" gradientUnits="userSpaceOnUse" x1="85.83228" y1="104.94044" x2="113.55901" y2="76.3193">
        <stop offset="0.23464" style="stop-color:#FFFFFF;stop-opacity:0"/>
        <stop offset="1" style="stop-color:#FFFFFF;stop-opacity:0.5"/>
      </linearGradient>
      <polygon class="highlight" fill="url(#ba1d71a4-07fb-4a6b-ab72-9280f77b18e9)" points="124.61688,74.11133 90.53667,107.58202 82.35054,99.32789 107.36269,74.11133 " transform="translate(521.0229 -124.51133)" stroke-width="0" stroke-linejoin="miter" stroke-miterlimit="2" opacity="1"/>
      <linearGradient id="b6656259-c80e-4f40-8983-06c345ea4ce4" gradientUnits="userSpaceOnUse" x1="82.68297" y1="124.54663" x2="82.68297" y2="74.11133">
        <stop offset="0.15998" style="stop-color:#FFFFFF;stop-opacity:0"/>
        <stop offset="0.98838" style="stop-color:#FFFFFF;stop-opacity:0.49309"/>
        <stop offset="1" style="stop-color:#FFFFFF;stop-opacity:0.5"/>
      </linearGradient>
      <polygon class="highlight" fill="url(#b6656259-c80e-4f40-8983-06c345ea4ce4)" points="89.98289,91.63324 89.98289,74.11133 75.38304,74.11133 75.38304,124.54663 89.98289,124.54663 89.98289,107.0235 82.35057,99.32788 " transform="translate(521.0229 -124.51133)" stroke-width="0" stroke-linejoin="miter" stroke-miterlimit="2" opacity="1"/>
      <linearGradient id="5ebf3128-9a39-4ea9-90d6-b5dd18fa8e21" gradientUnits="userSpaceOnUse" x1="82.68298" y1="124.54663" x2="82.68298" y2="74.11133">
        <stop offset="0" style="stop-color:#000000;stop-opacity:0.3"/>
        <stop offset="0.21414" style="stop-color:#0F0D0D;stop-opacity:0.21727"/>
        <stop offset="0.52404" style="stop-color:#1E1A1B;stop-opacity:0.09755"/>
        <stop offset="0.77654" style="stop-color:#231F20;stop-opacity:0"/>
      </linearGradient>
      <polygon class="highlight" fill="url(#5ebf3128-9a39-4ea9-90d6-b5dd18fa8e21)" points="89.98291,91.63324 89.98291,74.11133 75.38306,74.11133 75.38306,124.54663 89.98291,124.54663 89.98291,107.0235 82.35059,99.32788 " transform="translate(521.0229 -124.51133)" stroke-width="0" stroke-linejoin="miter" stroke-miterlimit="2" opacity="1"/>
    </g>
    <g id="path75120" aria-label="E" transform="translate(0 308.8) translate(642.8459350000002 50) scale(1) translate(-644.18131 50.4)">
      <polygon class="c1" points="120.52081,87.36542 120.52081,74.09314 94.07935,74.09332 94.07935,74.09363 79.47919,87.3656 79.47919,111.43201 94.07928,124.52936 94.07928,124.52972 94.07971,124.52972 94.07971,124.52972 94.07971,124.52972 120.52075,124.52954 120.52075,111.25726 94.07971,111.25745 94.07971,105.284 118.09473,105.28381 118.09473,92.01154 94.07971,92.01172 94.07971,87.36554 " transform="translate(564.70212 -124.49313)" stroke-width="0" stroke-linejoin="miter" stroke-miterlimit="2" fill="#5ab8ae" stroke="#5ab8ae"/>
      <linearGradient id="64c3ef55-4a2e-4a2c-9c4d-e268b09c7252" gradientUnits="userSpaceOnUse" x1="94.07928" y1="99.31142" x2="120.52081" y2="99.31142">
        <stop offset="0" style="stop-color:#000000;stop-opacity:0.4"/>
        <stop offset="0.27595" style="stop-color:#0F0D0D;stop-opacity:0.28962"/>
        <stop offset="0.67484" style="stop-color:#1E1A1B;stop-opacity:0.13006"/>
        <stop offset="1" style="stop-color:#231F20;stop-opacity:0"/>
      </linearGradient>
      <path class="highlight" fill="url(#64c3ef55-4a2e-4a2c-9c4d-e268b09c7252)" d="M94.07952,105.28402l0.00001-13.27227l24.01519-0.00018v13.27228L94.07952,105.28402z M120.52081,87.3654V74.09313l-26.44147,0.00018v13.27228L120.52081,87.3654z M120.52074,124.52954l0.00001-13.27228 l-26.44147,0.00018l-0.00001,13.27227L120.52074,124.52954z" transform="translate(564.70212 -124.49313)" stroke-width="0" stroke-linejoin="miter" stroke-miterlimit="2" opacity="1"/>
      <linearGradient id="a4695f77-fe79-42d2-805b-a48cf543ce7e" gradientUnits="userSpaceOnUse" x1="86.77944" y1="124.52972" x2="86.77944" y2="74.09335">
        <stop offset="0" style="stop-color:#000000;stop-opacity:0.3"/>
        <stop offset="0.21414" style="stop-color:#0F0D0D;stop-opacity:0.21727"/>
        <stop offset="0.52404" style="stop-color:#1E1A1B;stop-opacity:0.09755"/>
        <stop offset="0.77654" style="stop-color:#231F20;stop-opacity:0"/>
      </linearGradient>
      <polygon class="highlight" fill="url(#a4695f77-fe79-42d2-805b-a48cf543ce7e)" points="79.47919,111.43201 94.07969,124.52972 94.07969,74.09335 79.47919,87.3656 " transform="translate(564.70212 -124.49313)" stroke-width="0" stroke-linejoin="miter" stroke-miterlimit="2" opacity="1"/>
      <linearGradient id="32ec9dc3-b97f-4913-a375-143a0059d155" gradientUnits="userSpaceOnUse" x1="86.77944" y1="124.52972" x2="86.77944" y2="74.09335">
        <stop offset="0.23363" style="stop-color:#FFFFFF;stop-opacity:0"/>
        <stop offset="0.9894" style="stop-color:#FFFFFF;stop-opacity:0.49309"/>
        <stop offset="1" style="stop-color:#FFFFFF;stop-opacity:0.5"/>
      </linearGradient>
      <polygon class="highlight" fill="url(#32ec9dc3-b97f-4913-a375-143a0059d155)" points="79.47919,111.43201 94.07969,124.52972 94.07969,74.09335 79.47919,87.3656 " transform="translate(564.70212 -124.49313)" stroke-width="0" stroke-linejoin="miter" stroke-miterlimit="2" opacity="1"/>
    </g>
    <g id="path75122" aria-label="T" transform="translate(0 308.8) translate(688.2239350000001 50) scale(1) translate(-689.55931 50.4)">
      <polygon class="c1" points="121.78027,74.09302 92.69922,74.0932 92.69922,74.09277 78.21973,74.09296 78.21973,87.36523 92.69922,87.36505 92.69922,87.36548 92.7002,87.36548 92.7002,124.5296 107.30078,124.5296 107.30078,87.36536 121.78027,87.3653 " transform="translate(611.33969 -124.49277)" stroke-width="0" stroke-linejoin="miter" stroke-miterlimit="2" fill="#5ab8ae" stroke="#5ab8ae"/>
      <linearGradient id="659b27a5-e8b1-41c2-be74-f741b49ef91b" gradientUnits="userSpaceOnUse" x1="98.75742" y1="80.72904" x2="79.02769" y2="80.72904">
        <stop offset="0.25563" style="stop-color:#000000;stop-opacity:0.4"/>
        <stop offset="0.46104" style="stop-color:#0F0D0D;stop-opacity:0.28962"/>
        <stop offset="0.75796" style="stop-color:#1E1A1B;stop-opacity:0.13006"/>
        <stop offset="1" style="stop-color:#231F20;stop-opacity:0"/>
      </linearGradient>
      <polygon class="highlight" fill="url(#659b27a5-e8b1-41c2-be74-f741b49ef91b)" points="78.21962,87.36527 78.21963,74.09299 92.69942,74.09282 92.69942,87.36509 " transform="translate(611.33969 -124.49277)" stroke-width="0" stroke-linejoin="miter" stroke-miterlimit="2" opacity="1"/>
      <linearGradient id="f1d7d90e-2e91-4e21-bad5-cb39f2db6ebe" gradientUnits="userSpaceOnUse" x1="100.00058" y1="76.36192" x2="100.00058" y2="124.5535">
        <stop offset="0" style="stop-color:#FFFFFF;stop-opacity:0.5"/>
        <stop offset="0.01383" style="stop-color:#FFFFFF;stop-opacity:0.49309"/>
        <stop offset="1" style="stop-color:#FFFFFF;stop-opacity:0"/>
      </linearGradient>
      <polygon class="highlight" fill="url(#f1d7d90e-2e91-4e21-bad5-cb39f2db6ebe)" points="92.70033,124.52959 107.30083,124.52959 107.30083,87.3651 92.70033,74.09324 " transform="translate(611.33969 -124.49277)" stroke-width="0" stroke-linejoin="miter" stroke-miterlimit="2" opacity="1"/>
      <linearGradient id="2e1496d3-2e77-42a0-8cc1-dac15eabafaf" gradientUnits="userSpaceOnUse" x1="98.22302" y1="88.5871" x2="108.27877" y2="79.82423">
        <stop offset="0.25563" style="stop-color:#000000;stop-opacity:0.4"/>
        <stop offset="0.46104" style="stop-color:#0F0D0D;stop-opacity:0.28962"/>
        <stop offset="0.75796" style="stop-color:#1E1A1B;stop-opacity:0.13006"/>
        <stop offset="1" style="stop-color:#231F20;stop-opacity:0"/>
      </linearGradient>
      <polygon class="highlight" fill="url(#2e1496d3-2e77-42a0-8cc1-dac15eabafaf)" points="121.78027,74.09302 92.7002,74.0932 107.30127,87.36536 121.78027,87.3653 " transform="translate(611.33969 -124.49277)" stroke-width="0" stroke-linejoin="miter" stroke-miterlimit="2" opacity="1"/>
    </g>
  </g>
</svg>
